<svg width="670" height="512" viewBox="0 0 670 512" fill="none" xmlns="http://www.w3.org/2000/svg">
<path d="M472.03 287.916V288.568C470.628 286.925 469.197 285.296 467.781 283.667C467.186 282.987 466.591 282.308 465.996 281.628C463.475 278.766 460.939 275.915 458.39 273.073C455.826 270.24 453.262 267.407 450.67 264.588C450.047 263.908 449.424 263.229 448.787 262.549C448.276 261.977 447.722 261.447 447.129 260.962C446.531 260.464 445.844 260.085 445.104 259.843C444.252 259.607 443.354 259.597 442.498 259.815C441.52 260.042 440.586 260.396 439.637 260.693C438.659 261.019 437.696 261.33 436.719 261.642C434.764 262.28 432.824 262.917 430.869 263.554C430.845 263.564 430.82 263.569 430.795 263.569C430.769 263.568 430.744 263.563 430.721 263.553C430.697 263.543 430.676 263.529 430.658 263.511C430.64 263.493 430.626 263.471 430.617 263.448L430.614 263.441C430.603 263.414 430.598 263.385 430.599 263.356C430.6 263.327 430.608 263.299 430.622 263.273C430.635 263.247 430.654 263.225 430.677 263.207C430.701 263.19 430.727 263.178 430.756 263.172C431.237 263.016 431.733 262.86 432.229 262.704C434.198 262.053 436.152 261.416 438.121 260.778C439.098 260.452 440.075 260.141 441.053 259.829C441.96 259.485 442.917 259.293 443.886 259.263C445.468 259.376 446.952 260.073 448.05 261.217C448.659 261.784 449.212 262.379 449.764 262.988C450.415 263.696 451.067 264.404 451.719 265.112C454.339 267.974 456.94 270.844 459.523 273.724C462.115 276.614 464.684 279.508 467.228 282.407C467.412 282.619 467.596 282.832 467.781 283.044C469.211 284.659 470.614 286.288 472.03 287.916Z" fill="white"/>
<path d="M446.91 263.572C446.374 262.882 445.661 262.352 444.847 262.039L444.042 262.067C450.363 271.904 458.645 280.332 468.371 286.825C461.217 279.074 454.063 271.323 446.91 263.572Z" fill="white"/>
<path d="M578.839 365.802L546.752 193.992C546.203 191.16 544.708 188.599 542.512 186.727C540.316 184.856 537.549 183.787 534.666 183.694C534.407 183.689 534.147 183.689 533.888 183.694L512.029 184.478L509.676 184.565L498.767 184.957L496.414 185.038L489.397 185.291L347.899 190.371C347.686 190.383 347.467 190.383 347.254 190.377L315.546 189.714L303.813 189.472L303.438 189.466L294.777 189.282L219.312 187.713L199.304 187.292L189.438 187.09L187.074 187.039L175.825 186.808L173.466 186.756L161.957 186.52L159.599 186.468L146.954 186.202L144.971 186.162L133.692 185.926L131.911 185.891H131.651C128.657 185.903 125.764 186.974 123.482 188.913C121.201 190.852 119.679 193.536 119.185 196.489L90.1648 374.774C89.8701 376.58 89.9715 378.428 90.4621 380.191C90.9527 381.954 91.8206 383.589 93.0058 384.984C94.1911 386.378 95.6652 387.498 97.3262 388.266C98.9872 389.034 100.795 389.431 102.625 389.431H269.286C271.739 389.438 274.126 390.225 276.101 391.68L279.261 394.021C281.439 395.624 284.07 396.492 286.774 396.5C318.962 388.005 352.804 388.005 384.992 396.5C386.652 396.504 388.296 396.179 389.829 395.544C391.362 394.909 392.754 393.975 393.924 392.798C395.924 390.798 398.594 389.609 401.419 389.46L567.088 380.73C568.885 380.636 570.641 380.16 572.238 379.332C573.835 378.504 575.237 377.345 576.35 375.931C577.462 374.518 578.26 372.883 578.69 371.136C579.119 369.389 579.17 367.57 578.839 365.802V365.802Z" fill="#CCCCCC"/>
<path d="M533.439 339.01C533.226 344.832 530.71 350.332 526.444 354.3C522.178 358.267 516.511 360.379 510.689 360.17C501.069 359.83 489.589 359.66 477.129 359.92C436.439 360.79 385.319 366.39 354.569 386.53C350.704 389.067 346.137 390.32 341.519 390.11C341.179 390.09 340.849 390.07 340.509 390.04C335.721 389.602 331.209 387.603 327.669 384.35C310.729 368.85 271.879 350.08 182.949 348.76C182.579 348.76 182.219 348.74 181.859 348.72C178.979 348.539 176.162 347.792 173.571 346.521C170.979 345.251 168.664 343.482 166.756 341.317C164.848 339.151 163.386 336.631 162.453 333.899C161.521 331.168 161.135 328.28 161.319 325.4L170.059 186.69L171.369 165.9L173.669 129.53C173.901 125.867 175.518 122.43 178.193 119.917C180.868 117.404 184.399 116.004 188.069 116H188.159L241.139 116.31C263.459 117.32 281.946 120.163 296.599 124.84C301.604 126.392 306.474 128.352 311.159 130.7C317.558 133.802 323.307 138.096 328.099 143.35C331.084 146.707 335.155 148.905 339.599 149.56C340.288 149.663 340.983 149.726 341.679 149.75C345.777 149.92 349.821 148.762 353.209 146.45C387.819 123.26 458.349 121.5 497.299 122.5C502.746 122.627 507.951 124.777 511.899 128.532C515.848 132.286 518.258 137.376 518.659 142.81L520.239 163.5L521.809 184.13L530.869 303.36L533.389 336.53C533.45 337.355 533.467 338.183 533.439 339.01V339.01Z" fill="#F2F2F2"/>
<path d="M196.129 164.81C228.056 154.624 263.675 157.32 293.922 171.671C302.552 175.744 310.703 180.764 318.223 186.638C320.351 188.308 323.378 185.321 321.228 183.634C293.447 162.086 258.541 151.85 223.523 154.982C213.835 155.849 204.271 157.77 195 160.712C192.404 161.54 193.514 165.644 196.129 164.81H196.129Z" fill="#3F3D56"/>
<path d="M371.813 188.287C401.497 172.684 437.043 169.282 469.317 178.139C478.518 180.658 487.41 184.193 495.829 188.68C498.241 189.967 500.39 186.3 497.974 185.011C467.214 168.598 430.29 164.819 396.7 173.969C387.329 176.526 378.265 180.096 369.669 184.618C367.247 185.89 369.392 189.559 371.813 188.287Z" fill="#3F3D56"/>
<path d="M371.813 216.615C401.497 201.013 437.043 197.61 469.317 206.467C478.518 208.986 487.41 212.521 495.829 217.008C498.241 218.295 500.39 214.628 497.974 213.339C467.214 196.926 430.29 193.147 396.7 202.297C387.329 204.854 378.265 208.425 369.669 212.946C367.247 214.219 369.392 217.887 371.813 216.615L371.813 216.615Z" fill="#3F3D56"/>
<path d="M499.013 243.423C499.036 243.059 498.948 242.696 498.761 242.382C498.574 242.068 498.297 241.817 497.966 241.662C473.325 228.759 445.385 223.526 417.744 226.636C417.571 226.65 417.411 226.677 417.224 226.691H417.217C417.047 226.706 416.878 226.732 416.711 226.768C400.271 228.659 384.322 233.575 369.669 241.267C369.35 241.457 369.085 241.727 368.902 242.051C368.718 242.374 368.622 242.74 368.622 243.112V295.957C368.628 296.282 368.707 296.602 368.854 296.892C369.001 297.182 369.212 297.435 369.471 297.632C369.73 297.828 370.031 297.963 370.35 298.026C370.669 298.089 370.998 298.079 371.313 297.996C371.965 297.809 372.616 297.628 373.282 297.455C388.095 293.445 403.302 291.067 418.632 290.361C418.958 290.347 419.284 290.334 419.624 290.32C432.11 289.783 444.618 290.233 457.034 291.665C457.294 291.68 457.553 291.707 457.81 291.748C458.448 291.817 459.1 291.894 459.738 291.977C459.994 292.005 460.237 292.032 460.473 292.074C462.955 292.386 465.417 292.74 467.886 293.121C471.45 293.69 475.014 294.323 478.578 295.021C478.8 295.063 479.029 295.118 479.258 295.16C484.978 296.297 490.671 297.614 496.337 299.071C496.652 299.152 496.982 299.161 497.301 299.096C497.621 299.032 497.921 298.895 498.18 298.698C498.439 298.5 498.65 298.246 498.797 297.955C498.944 297.664 499.022 297.344 499.027 297.018V243.507C499.029 243.478 499.025 243.45 499.013 243.423V243.423Z" fill="#3F3D56"/>
<path d="M421.076 229.517C419.519 228.755 417.735 228.598 416.069 229.077C415.333 229.353 414.659 229.773 414.087 230.311C413.514 230.849 413.054 231.496 412.734 232.214C412.157 233.59 411.787 235.043 411.636 236.528C411.548 237.112 411.543 237.848 412.13 238.121C412.343 238.198 412.573 238.216 412.795 238.172C413.017 238.128 413.223 238.024 413.391 237.871C413.694 237.573 413.944 237.224 414.129 236.841C415.149 235.256 416.551 233.953 418.207 233.052C419.862 232.152 421.718 231.684 423.603 231.69L425.172 232.316C423.938 231.204 422.56 230.263 421.076 229.517V229.517Z" fill="#FF6582"/>
<path d="M438.054 241.697C436.837 239.905 435.394 237.992 433.135 237.406C430.519 236.729 427.831 238.075 425.551 239.404C418.772 243.352 412.207 247.657 405.885 252.301L405.892 252.371L420.567 251.47C424.102 251.253 427.757 251.006 430.881 249.518C432.002 248.815 433.256 248.348 434.564 248.146C435.376 248.19 436.171 248.395 436.903 248.748C437.636 249.1 438.291 249.595 438.831 250.202C445.594 256.613 447.552 266.416 455.139 272.048C450.311 261.467 444.595 251.314 438.054 241.697V241.697Z" fill="white"/>
<path d="M419.626 290.319C419.286 290.333 418.96 290.347 418.634 290.361C416.269 289.511 413.847 288.761 411.397 288.109C409.81 287.684 408.196 287.302 406.581 286.976C404.754 286.58 402.912 286.268 401.071 285.999C397.565 285.489 394.032 285.191 390.49 285.106C390.464 285.109 390.436 285.107 390.411 285.098C390.385 285.09 390.361 285.076 390.341 285.058C390.321 285.04 390.305 285.018 390.294 284.994C390.283 284.969 390.277 284.942 390.277 284.915C390.277 284.888 390.283 284.861 390.294 284.837C390.305 284.812 390.321 284.79 390.341 284.772C390.361 284.754 390.385 284.74 390.411 284.732C390.436 284.724 390.464 284.721 390.49 284.724C390.943 284.724 391.397 284.738 391.836 284.767C395.385 284.898 398.923 285.243 402.431 285.8C404.258 286.098 406.085 286.452 407.898 286.849C409.541 287.217 411.184 287.628 412.799 288.081C415.107 288.732 417.383 289.478 419.626 290.319Z" fill="white"/>
<path d="M460.475 292.075C460.235 292.032 459.994 292.004 459.739 291.976C458.761 291.169 457.77 290.404 456.736 289.653C455.447 288.718 454.116 287.84 452.756 287.019C449.744 285.191 446.601 283.59 443.351 282.231C438.213 280.091 432.894 278.413 427.459 277.217C421.258 275.859 414.982 274.875 408.663 274.271C402.346 273.619 396 273.223 389.655 272.826C389.386 272.812 389.371 272.415 389.655 272.429C390.448 272.486 391.241 272.529 392.048 272.585C398.465 272.982 404.881 273.435 411.255 274.158C417.575 274.835 423.844 275.923 430.022 277.415C435.297 278.715 440.445 280.483 445.405 282.698C448.257 283.98 451.021 285.452 453.676 287.103C455.362 288.166 456.991 289.299 458.549 290.503C459.201 291.013 459.852 291.523 460.475 292.075Z" fill="white"/>
<path d="M457.813 291.749C457.554 291.708 457.294 291.679 457.033 291.664C456.736 291.424 456.424 291.197 456.113 290.97C453.932 289.409 451.657 287.986 449.3 286.707C447.159 285.543 444.961 284.489 442.713 283.548C437.578 281.402 432.259 279.724 426.821 278.534C420.621 277.176 414.344 276.192 408.025 275.588C401.708 274.936 395.363 274.54 389.017 274.143C388.748 274.115 388.748 273.733 389.017 273.747C389.825 273.803 390.618 273.846 391.411 273.903C397.827 274.299 404.244 274.752 410.618 275.475C416.937 276.152 423.207 277.24 429.385 278.733C434.66 280.03 439.808 281.798 444.767 284.016C446.637 284.866 448.464 285.786 450.249 286.792C452.895 288.245 455.424 289.902 457.813 291.749Z" fill="white"/>
<path d="M479.257 295.163C479.03 295.12 478.804 295.064 478.577 295.021C478.322 294.752 478.081 294.469 477.84 294.185C476.623 292.783 475.419 291.367 474.229 289.936C469.54 284.356 465.093 278.605 460.9 272.741C457.302 267.727 453.889 262.614 450.66 257.401C449.116 254.937 447.628 252.444 446.17 249.923C445.036 247.968 443.932 246.009 442.855 244.045C442.544 243.478 442.246 242.911 441.949 242.345C441.254 241.013 440.56 239.668 439.824 238.351C439.023 236.737 437.848 235.338 436.396 234.271C435.671 233.785 434.831 233.497 433.96 233.436C432.732 233.44 431.524 233.752 430.447 234.342C422.523 238.032 415.048 242.618 408.167 248.01C401.447 253.237 395.371 259.242 390.065 265.9C389.896 266.098 389.527 265.914 389.683 265.701C390.32 264.908 390.972 264.115 391.623 263.336C396.723 257.304 402.465 251.847 408.748 247.061C408.762 247.047 408.79 247.033 408.804 247.019C409.357 246.58 409.909 246.155 410.476 245.744C413.984 243.161 417.634 240.778 421.411 238.606C423.337 237.487 425.306 236.424 427.317 235.419C427.813 235.164 428.323 234.909 428.832 234.668C429.342 234.413 429.853 234.172 430.362 233.931C431.372 233.417 432.475 233.113 433.606 233.039C437.544 232.982 439.569 236.948 440.971 239.625C441.41 240.461 441.864 241.297 442.303 242.132C444.002 245.291 445.773 248.436 447.614 251.537C448.733 253.464 449.895 255.376 451.07 257.274C452.756 259.979 454.484 262.656 456.283 265.319C456.283 265.321 456.283 265.323 456.284 265.325C456.284 265.326 456.285 265.328 456.286 265.329C456.288 265.33 456.289 265.332 456.291 265.332C456.293 265.333 456.294 265.333 456.296 265.333H456.297C458.379 268.478 460.546 271.565 462.784 274.639C466.623 279.894 470.645 285.031 474.852 290.05C476.297 291.778 477.765 293.482 479.257 295.163Z" fill="white"/>
<path d="M428.724 232.607L428.332 232.779C427.434 231.263 426.176 229.993 424.67 229.081C423.163 228.169 421.454 227.643 419.696 227.55C413.897 227.138 408.803 231.003 408.34 236.164C408.152 238.289 408.767 240.408 410.064 242.102L409.7 242.317C408.349 240.553 407.709 238.347 407.904 236.133C408.386 230.758 413.691 226.734 419.73 227.163C421.562 227.259 423.341 227.807 424.91 228.757C426.479 229.706 427.789 231.029 428.724 232.607V232.607Z" fill="#FF6582"/>
<path d="M400.07 243.05C398.548 242.388 396.89 242.098 395.234 242.203C393.578 242.309 391.97 242.807 390.545 243.656C395.75 244.455 400.909 245.527 406.001 246.867C403.893 245.768 402.243 244.044 400.07 243.05Z" fill="white"/>
<path d="M390.515 243.652L389.942 244.066C390.136 243.921 390.338 243.785 390.545 243.656L390.515 243.652Z" fill="white"/>
<path d="M407.775 246.056C407.546 245.83 407.319 245.603 407.089 245.376C405.326 243.458 403.203 241.904 400.841 240.804C399.638 240.298 398.348 240.031 397.043 240.02C395.694 240.052 394.361 240.311 393.099 240.786C392.505 240.997 391.925 241.237 391.353 241.492C390.7 241.785 390.058 242.097 389.419 242.412C388.22 243.002 387.036 243.619 385.868 244.261C383.544 245.54 381.293 246.916 379.115 248.389C377.985 249.154 376.88 249.943 375.797 250.757C374.79 251.514 373.803 252.29 372.837 253.087C372.63 253.257 372.322 252.982 372.528 252.813C372.783 252.602 373.041 252.392 373.298 252.185C374.026 251.599 374.765 251.025 375.516 250.462C376.885 249.433 378.29 248.445 379.73 247.496C381.97 246.019 384.286 244.643 386.68 243.366C387.876 242.729 389.089 242.118 390.318 241.535C390.689 241.359 391.065 241.186 391.445 241.023C392.312 240.634 393.207 240.31 394.122 240.053C395.435 239.677 396.808 239.557 398.166 239.699C399.467 239.865 400.729 240.254 401.897 240.848C404.213 242.146 406.302 243.812 408.083 245.781C408.269 245.967 407.962 246.243 407.775 246.056Z" fill="white"/>
<path d="M196.129 193.138C228.056 182.952 263.675 185.649 293.922 199.999C302.552 204.072 310.703 209.092 318.223 214.967C320.351 216.636 323.378 213.65 321.228 211.962C293.447 190.414 258.541 180.178 223.523 183.31C213.835 184.177 204.271 186.099 195 189.041C192.404 189.869 193.514 193.973 196.129 193.138L196.129 193.138Z" fill="#3F3D56"/>
<path d="M196.129 221.466C228.056 211.28 263.675 213.977 293.922 228.327C302.552 232.4 310.703 237.42 318.223 243.295C320.351 244.965 323.378 241.978 321.228 240.29C293.447 218.742 258.541 208.506 223.523 211.638C213.835 212.505 204.271 214.427 195 217.369C192.404 218.197 193.514 222.301 196.129 221.466L196.129 221.466Z" fill="#3F3D56"/>
<path d="M196.129 249.794C228.056 239.608 263.675 242.305 293.922 256.655C302.552 260.729 310.703 265.749 318.223 271.623C320.351 273.293 323.378 270.306 321.228 268.618C293.447 247.071 258.541 236.835 223.523 239.967C213.835 240.833 204.271 242.755 195 245.697C192.404 246.525 193.514 250.629 196.129 249.794L196.129 249.794Z" fill="#3F3D56"/>
<path d="M196.129 278.123C228.056 267.936 263.675 270.633 293.922 284.984C302.552 289.057 310.703 294.077 318.223 299.951C320.351 301.621 323.378 298.634 321.228 296.947C293.447 275.399 258.541 265.163 223.523 268.295C213.835 269.162 204.271 271.083 195 274.025C192.404 274.853 193.514 278.957 196.129 278.123L196.129 278.123Z" fill="#3F3D56"/>
<path d="M196.129 306.451C228.056 296.265 263.675 298.961 293.922 313.312C302.552 317.385 310.703 322.405 318.223 328.279C320.351 329.949 323.378 326.962 321.228 325.275C293.447 303.727 258.541 293.491 223.523 296.623C213.835 297.49 204.271 299.411 195 302.354C192.404 303.182 193.514 307.285 196.129 306.451H196.129Z" fill="#3F3D56"/>
<path d="M311.159 130.7V198.63C311.159 199.98 308.799 201.11 305.619 201.42C305.592 201.418 305.565 201.422 305.539 201.43C305.009 201.47 304.449 201.5 303.879 201.5C302.126 201.532 300.381 201.248 298.729 200.66C298.579 200.6 298.429 200.53 298.279 200.47C298.139 200.39 297.989 200.32 297.849 200.24C297.059 199.77 296.599 199.22 296.599 198.63V124.84C301.604 126.392 306.474 128.352 311.159 130.7V130.7Z" fill="#4348B3"/>
<path d="M341.677 146.455H339.597V388.69H341.677V146.455Z" fill="#E6E6E6"/>
</svg>
